<svg xmlns="http://www.w3.org/2000/svg" viewBox="0 0 960 540" role="img" aria-label="Customer Churn">
  <defs>
    <radialGradient id="glow" cx=".72" cy=".2" r=".7">
      <stop stop-color="#ff3045" stop-opacity=".32"/>
      <stop offset=".55" stop-color="#f59e0b" stop-opacity=".16"/>
      <stop offset="1" stop-color="#070a12" stop-opacity="0"/>
    </radialGradient>
    <linearGradient id="line" x1="0" x2="1">
      <stop stop-color="#ff3045"/>
      <stop offset="1" stop-color="#f59e0b"/>
    </linearGradient>
  </defs>
  <rect width="960" height="540" rx="44" fill="#080b12"/>
  <rect width="960" height="540" rx="44" fill="url(#glow)"/>
  <circle cx="812" cy="92" r="104" fill="#ff3045" opacity=".11"/>
  <circle cx="148" cy="438" r="118" fill="#f59e0b" opacity=".12"/>
  <path d="M84 454C256 346 376 494 534 376S750 246 884 320" stroke="url(#line)" stroke-width="5" fill="none" opacity=".55"/>

        <g transform="translate(110 122)">
          <rect width="740" height="300" rx="36" fill="#111827" stroke="#263146"/>
          <path d="M74 236V148M156 236V88M238 236V176M320 236V72M402 236V126" stroke="#ff3045" stroke-width="30" stroke-linecap="round"/>
          <path d="M506 222a82 82 0 1 1 90-137" fill="none" stroke="#263146" stroke-width="34"/>
          <path d="M596 85a82 82 0 0 1 24 122" fill="none" stroke="#f59e0b" stroke-width="34" stroke-linecap="round"/>
          <text x="517" y="170" font-size="52" font-weight="900" fill="#ffffff">73%</text>
        </g>

  <text x="56" y="72" font-family="Inter, Arial, sans-serif" font-size="32" font-weight="900" fill="#ffffff">Customer Churn</text>
  <text x="58" y="110" font-family="Inter, Arial, sans-serif" font-size="17" font-weight="700" fill="#94a3b8">Predictive analytics for retention</text>
</svg>
