<svg xmlns="http://www.w3.org/2000/svg" viewBox="0 0 780 430" role="img" aria-label="Fraud Classification Metrics">
  <defs>
    <linearGradient id="a" x1="0" x2="1" y1="0" y2="1">
      <stop stop-color="#38bdf8" stop-opacity=".85"/>
      <stop offset="1" stop-color="#8b5cf6" stop-opacity=".72"/>
    </linearGradient>
  </defs>
  <rect width="780" height="430" rx="32" fill="#0b0f19"/>
  <rect x="24" y="24" width="732" height="382" rx="26" fill="#111827" stroke="#263146" stroke-width="2"/>
  <rect x="56" y="58" width="160" height="16" rx="8" fill="url(#a)"/>
  <rect x="56" y="102" width="285" height="12" rx="6" fill="#334155"/>
  <rect x="56" y="128" width="220" height="12" rx="6" fill="#334155"/>
  <rect x="56" y="176" width="150" height="118" rx="20" fill="#172033" stroke="#2b3650"/>
  <rect x="238" y="144" width="150" height="150" rx="20" fill="#172033" stroke="#2b3650"/>
  <rect x="420" y="94" width="150" height="200" rx="20" fill="#172033" stroke="#2b3650"/>
  <rect x="602" y="196" width="90" height="98" rx="20" fill="#172033" stroke="#2b3650"/>
  <path d="M92 274c91-110 183-37 275-110 84-67 130-98 273-14" fill="none" stroke="url(#a)" stroke-width="10" stroke-linecap="round"/>
  <circle cx="92" cy="274" r="13" fill="#38bdf8"/>
  <circle cx="367" cy="164" r="13" fill="#38bdf8"/>
  <circle cx="640" cy="150" r="13" fill="#8b5cf6"/>
  <text x="56" y="356" font-family="Inter, Arial, sans-serif" font-size="28" font-weight="900" fill="#ffffff">Fraud Classification Metrics</text>
</svg>
