<svg xmlns="http://www.w3.org/2000/svg" viewBox="0 0 960 540" role="img" aria-label="House Price Prediction">
  <defs>
    <radialGradient id="glow" cx=".72" cy=".2" r=".7">
      <stop stop-color="#f59e0b" stop-opacity=".32"/>
      <stop offset=".55" stop-color="#ff3045" stop-opacity=".16"/>
      <stop offset="1" stop-color="#070a12" stop-opacity="0"/>
    </radialGradient>
    <linearGradient id="line" x1="0" x2="1">
      <stop stop-color="#f59e0b"/>
      <stop offset="1" stop-color="#ff3045"/>
    </linearGradient>
  </defs>
  <rect width="960" height="540" rx="44" fill="#080b12"/>
  <rect width="960" height="540" rx="44" fill="url(#glow)"/>
  <circle cx="812" cy="92" r="104" fill="#f59e0b" opacity=".11"/>
  <circle cx="148" cy="438" r="118" fill="#ff3045" opacity=".12"/>
  <path d="M84 454C256 346 376 494 534 376S750 246 884 320" stroke="url(#line)" stroke-width="5" fill="none" opacity=".55"/>

        <g transform="translate(144 112)">
          <path d="M250 0 38 160h424z" fill="#ff3045"/>
          <rect x="88" y="160" width="324" height="250" rx="30" fill="#111827" stroke="#263146" stroke-width="3"/>
          <rect x="132" y="206" width="90" height="82" rx="16" fill="#1d2740" stroke="#334155"/>
          <rect x="282" y="206" width="90" height="82" rx="16" fill="#1d2740" stroke="#334155"/>
          <rect x="208" y="310" width="90" height="100" rx="18" fill="#05070b"/>
        </g>
        <g transform="translate(642 158)">
          <rect width="212" height="162" rx="30" fill="#111827" stroke="#263146"/>
          <text x="36" y="60" font-size="24" font-weight="800" fill="#64748b">Prediction</text>
          <text x="36" y="114" font-size="50" font-weight="900" fill="#f59e0b">$452k</text>
        </g>
        <path d="M594 390c74-68 128-80 230-48" stroke="#f59e0b" stroke-width="12" stroke-linecap="round" fill="none"/>

  <text x="56" y="72" font-family="Inter, Arial, sans-serif" font-size="32" font-weight="900" fill="#ffffff">House Price Prediction</text>
  <text x="58" y="110" font-family="Inter, Arial, sans-serif" font-size="17" font-weight="700" fill="#94a3b8">Regression modeling and feature analysis</text>
</svg>
