<svg xmlns="http://www.w3.org/2000/svg" viewBox="0 0 960 540" role="img" aria-label="RAG Document Q&amp;A">
  <defs>
    <radialGradient id="glow" cx=".72" cy=".2" r=".7">
      <stop stop-color="#8b5cf6" stop-opacity=".32"/>
      <stop offset=".55" stop-color="#ff3045" stop-opacity=".16"/>
      <stop offset="1" stop-color="#070a12" stop-opacity="0"/>
    </radialGradient>
    <linearGradient id="line" x1="0" x2="1">
      <stop stop-color="#8b5cf6"/>
      <stop offset="1" stop-color="#ff3045"/>
    </linearGradient>
  </defs>
  <rect width="960" height="540" rx="44" fill="#080b12"/>
  <rect width="960" height="540" rx="44" fill="url(#glow)"/>
  <circle cx="812" cy="92" r="104" fill="#8b5cf6" opacity=".11"/>
  <circle cx="148" cy="438" r="118" fill="#ff3045" opacity=".12"/>
  <path d="M84 454C256 346 376 494 534 376S750 246 884 320" stroke="url(#line)" stroke-width="5" fill="none" opacity=".55"/>

        <g transform="translate(116 124)">
          <rect width="316" height="292" rx="34" fill="#111827" stroke="#263146"/>
          <rect x="42" y="44" width="168" height="20" rx="10" fill="#8b5cf6"/>
          <rect x="42" y="91" width="226" height="12" rx="6" fill="#3a465f"/>
          <rect x="42" y="122" width="190" height="12" rx="6" fill="#3a465f"/>
          <rect x="42" y="153" width="235" height="12" rx="6" fill="#3a465f"/>
          <rect x="42" y="207" width="112" height="44" rx="14" fill="#1d2740"/>
          <rect x="172" y="207" width="96" height="44" rx="14" fill="#1d2740"/>
        </g>
        <g transform="translate(548 152)">
          <path d="M0 132C86 132 86 0 172 0" stroke="#8b5cf6" stroke-width="10" stroke-linecap="round" fill="none"/>
          <path d="M0 162C104 162 104 56 208 56" stroke="#ff3045" stroke-width="10" stroke-linecap="round" fill="none"/>
          <path d="M0 192C86 192 86 245 172 245" stroke="#ffffff" stroke-width="10" stroke-linecap="round" fill="none" opacity=".7"/>
          <circle cx="0" cy="132" r="18" fill="#8b5cf6"/>
          <circle cx="0" cy="162" r="18" fill="#ff3045"/>
          <circle cx="0" cy="192" r="18" fill="#ffffff"/>
          <circle cx="172" cy="0" r="22" fill="#8b5cf6"/>
          <circle cx="208" cy="56" r="22" fill="#ff3045"/>
          <circle cx="172" cy="245" r="22" fill="#ffffff"/>
        </g>

  <text x="56" y="72" font-family="Inter, Arial, sans-serif" font-size="32" font-weight="900" fill="#ffffff">RAG Document Q&amp;A</text>
  <text x="58" y="110" font-family="Inter, Arial, sans-serif" font-size="17" font-weight="700" fill="#94a3b8">Documents, embeddings and contextual answers</text>
</svg>
