<svg xmlns="http://www.w3.org/2000/svg" viewBox="0 0 960 540" role="img" aria-label="Skill Matrix">
  <defs>
    <radialGradient id="glow" cx=".72" cy=".2" r=".7">
      <stop stop-color="#ff3045" stop-opacity=".32"/>
      <stop offset=".55" stop-color="#38bdf8" stop-opacity=".16"/>
      <stop offset="1" stop-color="#070a12" stop-opacity="0"/>
    </radialGradient>
    <linearGradient id="line" x1="0" x2="1">
      <stop stop-color="#ff3045"/>
      <stop offset="1" stop-color="#38bdf8"/>
    </linearGradient>
  </defs>
  <rect width="960" height="540" rx="44" fill="#080b12"/>
  <rect width="960" height="540" rx="44" fill="url(#glow)"/>
  <circle cx="812" cy="92" r="104" fill="#ff3045" opacity=".11"/>
  <circle cx="148" cy="438" r="118" fill="#38bdf8" opacity=".12"/>
  <path d="M84 454C256 346 376 494 534 376S750 246 884 320" stroke="url(#line)" stroke-width="5" fill="none" opacity=".55"/>

        <g transform="translate(480 274)">
          <circle r="152" fill="#111827" stroke="#263146" stroke-width="2"/>
          <circle r="92" fill="#172033" stroke="#334155"/>
          <path d="M0-150 129-75 129 75 0 150-129 75-129-75z" fill="none" stroke="#ff3045" stroke-width="5" opacity=".8"/>
          <path d="M0-92 80-46 80 46 0 92-80 46-80-46z" fill="none" stroke="#38bdf8" stroke-width="5" opacity=".85"/>
          <circle cx="0" cy="-150" r="22" fill="#ff3045"/>
          <circle cx="129" cy="-75" r="22" fill="#38bdf8"/>
          <circle cx="129" cy="75" r="22" fill="#ff3045"/>
          <circle cx="0" cy="150" r="22" fill="#38bdf8"/>
          <circle cx="-129" cy="75" r="22" fill="#ff3045"/>
          <circle cx="-129" cy="-75" r="22" fill="#38bdf8"/>
          <text x="-57" y="13" font-size="46" font-weight="900" fill="#ffffff">STACK</text>
        </g>

  <text x="56" y="72" font-family="Inter, Arial, sans-serif" font-size="32" font-weight="900" fill="#ffffff">Skill Matrix</text>
  <text x="58" y="110" font-family="Inter, Arial, sans-serif" font-size="17" font-weight="700" fill="#94a3b8">Python, ML, CV, deployment and tools</text>
</svg>
